# File created by Blade
# Date/Time:  Tue Jan 27 19:00:36 2015
# Frame Rate: 120.000 fps
#------------------------------------------------------
:FULLY-SPECIFIED
:DEGREES
3065
root -2.513826 31.874896 -5.042273 25.745022 -57.875750 -20.357661
Spine 6.385510 6.477756 -2.436253
Head 20.239858 -0.748150 0.545398
LeftShoulder -21.353653 22.287786 11.160373
LeftArm -5.045547 -48.393926 -75.615329
LeftForeArm -10.586185 -0.000000 116.081954
LeftHand -15.200375 0.000000 29.546403
LeftHandThumb1 -26.253704 0.000000 33.147579
RightShoulder -7.126951 2.423033 -8.621384
RightArm 10.735058 -17.731263 79.868165
RightForeArm -31.510666 -0.000000 38.101270
RightHand -16.016640 -0.000000 4.399787
RightHandThumb1 -24.326973 -0.000000 -32.862282
LeftUpLeg -16.359394 20.683419 -5.013206
LeftLeg 16.753334 -0.000000 -0.000000
LeftFoot -30.722403 38.589023 -16.408193
LeftToeBase 11.338653 -0.000000 -0.000000
RightUpLeg -41.647364 -53.480958 13.568067
RightLeg 87.420218 -0.000000 -0.000000
RightFoot -15.933410 -26.167144 15.396258
RightToeBase -0.664376 -0.000000 0.000000
3066
root -2.511360 31.876716 -5.055007 25.806742 -57.819904 -20.409469
Spine 6.431056 6.374917 -2.381136
Head 20.264681 -0.708372 0.576987
LeftShoulder -21.293904 22.237231 11.200916
LeftArm -5.021893 -48.354410 -75.751365
LeftForeArm -10.454444 -0.000000 116.175091
LeftHand -15.172980 -0.000000 29.557675
LeftHandThumb1 -26.253704 0.000000 33.147579
RightShoulder -7.174427 2.290703 -8.665167
RightArm 10.685862 -17.506092 79.732964
RightForeArm -31.595123 0.000000 37.780050
RightHand -16.049826 -0.000000 4.325888
RightHandThumb1 -24.326973 -0.000000 -32.862282
LeftUpLeg -16.437031 20.703114 -4.966720
LeftLeg 16.835108 -0.000000 -0.000000
LeftFoot -30.732256 38.507875 -16.407906
LeftToeBase 11.303555 -0.000000 -0.000000
RightUpLeg -41.749536 -53.505094 13.751096
RightLeg 87.340710 -0.000000 -0.000000
RightFoot -15.926411 -26.128866 15.423244
RightToeBase -0.552543 -0.000000 0.000000
3067
root -2.504675 31.875461 -5.058316 25.773013 -57.809380 -20.367035
Spine 6.496891 6.270822 -2.371262
Head 20.280271 -0.703233 0.561504
LeftShoulder -21.292809 22.181212 11.206580
LeftArm -4.959473 -48.297392 -75.913112
LeftForeArm -10.342314 -0.000000 116.256516
LeftHand -15.119680 -0.000000 29.661674
LeftHandThumb1 -26.253704 0.000000 33.147579
RightShoulder -7.204969 2.216720 -8.715441
RightArm 10.604602 -17.368118 79.576906
RightForeArm -31.500411 -0.000000 37.485583
RightHand -16.238760 -0.000000 4.138379
RightHandThumb1 -24.326973 -0.000000 -32.862282
LeftUpLeg -16.471472 20.689072 -4.992436
LeftLeg 16.874152 -0.000000 -0.000000
LeftFoot -30.731190 38.501591 -16.400872
LeftToeBase 11.273228 -0.000000 -0.000000
RightUpLeg -41.831647 -53.502815 13.831631
RightLeg 87.277738 -0.000000 -0.000000
RightFoot -15.898258 -26.110076 15.330865
RightToeBase -0.639039 -0.000000 0.000000
3068
root -2.502497 31.875468 -5.064116 25.783165 -57.804004 -20.380092
Spine 6.544549 6.194768 -2.346560
Head 20.312074 -0.688842 0.564851
LeftShoulder -21.279852 22.122210 11.218859
LeftArm -4.924503 -48.244876 -76.029877
LeftForeArm -10.194378 -0.000000 116.335251
LeftHand -15.088861 0.000000 29.797969
LeftHandThumb1 -26.253704 0.000000 33.147579
RightShoulder -7.231868 2.122774 -8.775139
RightArm 10.515743 -17.164817 79.479003
RightForeArm -31.504395 0.000000 37.185398
RightHand -16.157728 -0.000000 4.123452
RightHandThumb1 -24.326973 -0.000000 -32.862282
LeftUpLeg -16.510494 20.737215 -4.986482
LeftLeg 16.934086 -0.000000 -0.000000
LeftFoot -30.723902 38.467715 -16.351102
LeftToeBase 11.306232 -0.000000 -0.000000
RightUpLeg -41.939188 -53.519539 13.975365
RightLeg 87.205591 -0.000000 -0.000000
RightFoot -15.913724 -26.113610 15.343331
RightToeBase -0.560055 -0.000000 0.000000
3069
root -2.500686 31.876315 -5.070275 25.814555 -57.810144 -20.414102
Spine 6.578381 6.129109 -2.327805
Head 20.355296 -0.687678 0.592299
LeftShoulder -21.277099 22.077993 11.240906
LeftArm -4.866443 -48.206519 -76.171786
LeftForeArm -10.030739 -0.000000 116.401612
LeftHand -15.140985 -0.000000 29.966111
LeftHandThumb1 -26.253704 0.000000 33.147579
RightShoulder -7.245107 2.070732 -8.794578
RightArm 10.398882 -17.041119 79.344870
RightForeArm -31.418730 -0.000000 36.912203
RightHand -16.357384 -0.000000 4.034871
RightHandThumb1 -24.326973 -0.000000 -32.862282
LeftUpLeg -16.547672 20.800773 -4.978988
LeftLeg 16.971987 -0.000000 -0.000000
LeftFoot -30.687215 38.441276 -16.278364
LeftToeBase 11.294147 -0.000000 -0.000000
RightUpLeg -42.049565 -53.538132 14.131205
RightLeg 87.146799 -0.000000 -0.000000
RightFoot -15.919103 -26.076191 15.309430
RightToeBase -0.694583 -0.000000 0.000000
